<svg width="47" height="22" viewBox="0 0 47 22" fill="none" xmlns="http://www.w3.org/2000/svg">
<path d="M13.08 11.28C13.28 11.28 13.38 11.5067 13.38 11.96C13.38 12.9067 12.94 13.8267 12.06 14.72C11.18 15.6 10.1067 16.0467 8.84 16.06C7.94667 16.06 6.91333 15.7067 5.74 15C4.9 15.8933 3.85333 16.34 2.6 16.34C1.77333 16.34 1.16667 16.1333 0.78 15.72C0.393333 15.3067 0.2 14.76 0.2 14.08C0.2 13.4 0.446667 12.8933 0.94 12.56C1.44667 12.2133 2.08667 12.04 2.86 12.04C3.27333 12.04 3.66 12.06 4.02 12.1C4.02 10.4733 4.2 8.88667 4.56 7.34C4.12 7.11333 3.74 6.86 3.42 6.58C3.11333 6.3 2.96 6.08 2.96 5.92C2.96 5.49333 3.05333 5.28 3.24 5.28C3.50667 5.28 3.78 5.36 4.06 5.52C4.35333 5.66667 4.66667 5.78 5 5.86C5.82667 3.47333 6.96 1.93333 8.4 1.24C8.90667 0.999999 9.44 0.879999 10 0.879999C12.1067 0.879999 13.16 1.76667 13.16 3.54C13.16 4.55333 12.78 5.42667 12.02 6.16C10.9667 7.17333 9.36667 7.70667 7.22 7.76C7.07333 8.88 7 10.2067 7 11.74C7 12.1133 6.95333 12.5333 6.86 13C7.32667 13.24 7.78 13.46 8.22 13.66C8.66 13.86 9.2 13.96 9.84 13.96C10.1733 13.96 10.5 13.82 10.82 13.54C11.1533 13.26 11.46 12.9533 11.74 12.62C12.0333 12.2867 12.2933 11.98 12.52 11.7C12.7467 11.42 12.9333 11.28 13.08 11.28ZM9.96 2.84C8.84 2.84 8.02667 3.90667 7.52 6.04C8.48 5.96 9.28667 5.69333 9.94 5.24C10.6067 4.77333 10.94 4.30667 10.94 3.84C10.94 3.17333 10.6133 2.84 9.96 2.84ZM2.14 14.22C2.15333 14.5933 2.41333 14.78 2.92 14.78C3.42667 14.78 3.74667 14.4867 3.88 13.9C3.50667 13.7133 3.2 13.62 2.96 13.62C2.42667 13.62 2.15333 13.82 2.14 14.22ZM20.5159 14.3C19.4626 15.54 18.1959 16.16 16.7159 16.16C15.2493 16.16 14.1493 15.7867 13.4159 15.04C12.6826 14.28 12.3226 13.34 12.3359 12.22C12.3226 10.6333 12.8226 9.26667 13.8359 8.12C14.8493 6.97333 16.1759 6.4 17.8159 6.4C18.5626 6.4 19.1626 6.49333 19.6159 6.68C20.4026 7 20.7959 7.3 20.7959 7.58C20.7959 7.79333 20.2426 7.90667 19.1359 7.92C18.0426 7.92 17.1226 8.3 16.3759 9.06C15.6426 9.80667 15.2759 10.7533 15.2759 11.9C15.2759 12.5 15.4493 13.0067 15.7959 13.42C16.1559 13.82 16.6559 14.02 17.2959 14.02C17.9493 14.02 18.4893 13.8867 18.9159 13.62C17.9693 12.98 17.4959 12.0533 17.4959 10.84C17.4826 10.2 17.7093 9.62 18.1759 9.1C18.6559 8.56667 19.2626 8.3 19.9959 8.3C20.7426 8.28667 21.2759 8.48667 21.5959 8.9C21.9159 9.31333 22.0759 9.84667 22.0759 10.5C22.0759 11.14 21.9226 11.82 21.6159 12.54H21.7359C22.3226 12.5267 22.8293 12.32 23.2559 11.92C23.4159 11.76 23.5493 11.62 23.6559 11.5C23.7759 11.38 23.8959 11.32 24.0159 11.32C24.2026 11.32 24.2959 11.54 24.2959 11.98C24.2959 12.7933 24.0559 13.4067 23.5759 13.82C23.0959 14.22 22.5626 14.42 21.9759 14.42C21.4026 14.42 20.9159 14.38 20.5159 14.3ZM20.3359 11.98C20.5626 11.5 20.6759 11.0333 20.6759 10.58C20.6759 10.1267 20.5293 9.9 20.2359 9.9C20.1159 9.9 20.0159 9.98667 19.9359 10.16C19.8559 10.3333 19.8159 10.5 19.8159 10.66C19.8159 11.1933 19.9893 11.6333 20.3359 11.98ZM30.9553 6.9C31.142 6.31333 31.442 6.02 31.8553 6.02C32.2286 6.03333 32.582 6.3 32.9153 6.82C33.2486 7.32667 33.4153 7.72 33.4153 8C33.3886 8.54667 33.222 9.42 32.9153 10.62C32.6086 11.8067 32.1753 13.3533 31.6153 15.26C32.4953 14.58 33.362 13.6933 34.2153 12.6C34.5086 12.2267 34.7553 11.9267 34.9553 11.7C35.1686 11.46 35.342 11.34 35.4753 11.34C35.662 11.34 35.7553 11.5533 35.7553 11.98C35.7553 12.82 35.282 13.8 34.3353 14.92C33.402 16.04 32.2553 16.9133 30.8953 17.54C30.7353 18.0733 30.562 18.58 30.3753 19.06C30.1886 19.54 29.9486 19.96 29.6553 20.32C29.0153 21.0933 28.042 21.48 26.7353 21.48C25.8553 21.48 25.102 21.2267 24.4753 20.72C23.862 20.2133 23.5553 19.58 23.5553 18.82C23.5553 18.4067 23.6886 18.08 23.9553 17.84C24.2353 17.6 24.6153 17.4067 25.0953 17.26C25.5753 17.1133 26.1353 16.9867 26.7753 16.88C27.4286 16.7733 28.122 16.64 28.8553 16.48C28.922 16.2533 28.9753 16.0333 29.0153 15.82C29.0686 15.5933 29.122 15.3667 29.1753 15.14C28.442 15.82 27.542 16.16 26.4753 16.16C25.422 16.16 24.6086 15.8667 24.0353 15.28C23.462 14.6933 23.182 13.98 23.1953 13.14C23.1953 10.8733 23.9486 9.08667 25.4553 7.78C26.4953 6.88667 27.5753 6.44 28.6953 6.44C29.082 6.44 29.4953 6.48667 29.9353 6.58C30.3886 6.67333 30.7286 6.78 30.9553 6.9ZM26.1353 12.48C26.1353 13.5067 26.5153 14.02 27.2753 14.02C27.702 14.02 28.1353 13.86 28.5753 13.54C29.0153 13.22 29.3686 12.7 29.6353 11.98C29.8353 11.0467 30.042 10.1867 30.2553 9.4C30.482 8.61333 30.6353 8.06667 30.7153 7.76C29.5953 7.90667 28.5486 8.40667 27.5753 9.26C26.6153 10.1133 26.1353 11.1867 26.1353 12.48ZM28.2353 18.32C27.7553 18.4133 27.3353 18.4867 26.9753 18.54C26.6153 18.5933 26.3153 18.64 26.0753 18.68C25.8486 18.72 25.6753 18.7667 25.5553 18.82C25.4486 18.8733 25.3953 18.96 25.3953 19.08C25.3953 19.32 25.542 19.5267 25.8353 19.7C26.142 19.8733 26.442 19.9533 26.7353 19.94C27.242 19.94 27.742 19.4 28.2353 18.32ZM42.8402 14.3C41.7868 15.54 40.5202 16.16 39.0402 16.16C37.5735 16.16 36.4735 15.7867 35.7402 15.04C35.0068 14.28 34.6468 13.34 34.6602 12.22C34.6468 10.6333 35.1468 9.26667 36.1602 8.12C37.1735 6.97333 38.5002 6.4 40.1402 6.4C40.8868 6.4 41.4868 6.49333 41.9402 6.68C42.7268 7 43.1202 7.3 43.1202 7.58C43.1202 7.79333 42.5668 7.90667 41.4602 7.92C40.3668 7.92 39.4468 8.3 38.7002 9.06C37.9668 9.80667 37.6002 10.7533 37.6002 11.9C37.6002 12.5 37.7735 13.0067 38.1202 13.42C38.4802 13.82 38.9802 14.02 39.6202 14.02C40.2735 14.02 40.8135 13.8867 41.2402 13.62C40.2935 12.98 39.8202 12.0533 39.8202 10.84C39.8068 10.2 40.0335 9.62 40.5002 9.1C40.9802 8.56667 41.5868 8.3 42.3202 8.3C43.0668 8.28667 43.6002 8.48667 43.9202 8.9C44.2402 9.31333 44.4002 9.84667 44.4002 10.5C44.4002 11.14 44.2468 11.82 43.9402 12.54H44.0602C44.6468 12.5267 45.1535 12.32 45.5802 11.92C45.7402 11.76 45.8735 11.62 45.9802 11.5C46.1002 11.38 46.2202 11.32 46.3402 11.32C46.5268 11.32 46.6202 11.54 46.6202 11.98C46.6202 12.7933 46.3802 13.4067 45.9002 13.82C45.4202 14.22 44.8868 14.42 44.3002 14.42C43.7268 14.42 43.2402 14.38 42.8402 14.3ZM42.6602 11.98C42.8868 11.5 43.0002 11.0333 43.0002 10.58C43.0002 10.1267 42.8535 9.9 42.5602 9.9C42.4402 9.9 42.3402 9.98667 42.2602 10.16C42.1802 10.3333 42.1402 10.5 42.1402 10.66C42.1402 11.1933 42.3135 11.6333 42.6602 11.98Z" fill="#1322BE"/>
</svg>
